inDegrees=no
num_controls=7
num_derivatives=13
num_iterations=116
num_multipliers=7
num_parameters=0
num_slacks=7
num_states=26
objective=4.760945
objective_accelerations=0.462181
objective_balance=0.010631
objective_effort=0.135866
objective_height=4.125394
objective_ligament=0.026873
solver_duration=1331.678367
status=Solve_Succeeded
success=true
DataType=double
version=3
OpenSimVersion=4.4-2022-07-23-0e9fedc
endheader
time	/jointset/ground_pelvis/pelvis_tilt/value	/jointset/ground_pelvis/pelvis_tx/value	/jointset/ground_pelvis/pelvis_ty/value	/jointset/hip_l/hip_flexion_l/value	/jointset/hip_l/hip_adduction_l/value	/jointset/hip_l/hip_rotation_l/value	/jointset/back/lumbar_extension/value	/jointset/patellofemoral_l/patellar_flexion_l/value	/jointset/knee_l/knee_flexion_l/value	/jointset/knee_l/knee_adduction_l/value	/jointset/knee_l/knee_rotation_l/value	/jointset/ankle_l/ankle_angle_l/value	/jointset/subtalar_l/subtalar_angle_l/value	/jointset/ground_pelvis/pelvis_tilt/speed	/jointset/ground_pelvis/pelvis_tx/speed	/jointset/ground_pelvis/pelvis_ty/speed	/jointset/hip_l/hip_flexion_l/speed	/jointset/hip_l/hip_adduction_l/speed	/jointset/hip_l/hip_rotation_l/speed	/jointset/back/lumbar_extension/speed	/jointset/patellofemoral_l/patellar_flexion_l/speed	/jointset/knee_l/knee_flexion_l/speed	/jointset/knee_l/knee_adduction_l/speed	/jointset/knee_l/knee_rotation_l/speed	/jointset/ankle_l/ankle_angle_l/speed	/jointset/subtalar_l/subtalar_angle_l/speed	/forceset/tau_hip_flexion_l	/forceset/tau_hip_adduction_l	/forceset/tau_hip_rotation_l	/forceset/tau_knee_flexion_l	/forceset/tau_ankle_angle_l	/forceset/tau_subtalar_angle_l	/forceset/tau_lumbar_extension	lambda_cid13_p0	lambda_cid13_p1	lambda_cid13_p2	lambda_cid13_p3	lambda_cid13_p4	lambda_cid13_p5	lambda_cid14_p0	/jointset/ground_pelvis/pelvis_tilt/accel	/jointset/ground_pelvis/pelvis_tx/accel	/jointset/ground_pelvis/pelvis_ty/accel	/jointset/hip_l/hip_flexion_l/accel	/jointset/hip_l/hip_adduction_l/accel	/jointset/hip_l/hip_rotation_l/accel	/jointset/back/lumbar_extension/accel	/jointset/patellofemoral_l/patellar_flexion_l/accel	/jointset/knee_l/knee_flexion_l/accel	/jointset/knee_l/knee_adduction_l/accel	/jointset/knee_l/knee_rotation_l/accel	/jointset/ankle_l/ankle_angle_l/accel	/jointset/subtalar_l/subtalar_angle_l/accel	gamma_cid13_p0	gamma_cid13_p1	gamma_cid13_p2	gamma_cid13_p3	gamma_cid13_p4	gamma_cid13_p5	gamma_cid14_p0
0	0.04802033156490638	0.1080883611789436	0.9028605508480041	0.1266917050730164	-0.3701151673414023	-0.2249188564868912	-0.2144974744115991	0.205154726925675	0.2051547269256735	-0.1745326919976547	-0.160130829286448	0.09024399430361882	0.07894448053081775	0	0	0	0	0	0	0	0	0	0	0	0	0	0.1060628881646687	-0.08444928801121578	-0.009140527660140974	-0.2461528149858773	0.1828495790116145	-0.06287871465034774	-0.03906633338431485	29.4311873334426	22.87638104915309	-4.75207820449561	-25.06690390491104	-441.4645522646858	-71.80846060181412	-26.2464163970322	-2.11741813229395	-0.5887062223733768	-0.6736207323132763	8.323331297708883	-0.3269024678190627	2.771290639124684	-3.248521797132036	8.784562073670564	8.784562073669587	1.488481359218101	-0.7268279045405017	3.335940059494687	0.6131320233510599	-1.074111153356157e-08	3.595708509687485e-07	-4.202035552338937e-08	3.372734108476077e-08	9.241901522668024e-10	1.343024394930199e-07	3.725861236011557e-08
0.01	0.04792001707036811	0.1080593479976895	0.9028278593716123	0.1270954055923797	-0.3701308041589447	-0.2247746196172914	-0.2146626196901001	0.2055828060709727	0.2055828060711268	-0.1744600565473449	-0.1601573517696563	0.09040713451924139	0.07897473574518626	-0.019999867127612	-0.005782456027648331	-0.006518897599843515	0.08041189840006915	-0.003114091300766647	0.02874155693483778	-0.03279067573905042	0.08522125708676637	0.08522125708676671	0.01444596146489492	-0.005249613888140425	0.03246546007334223	0.006018670943174454	0.1035996732086426	-0.09043654193882222	-0.008488549512443761	-0.242786061238716	0.175899747956976	-0.05551085622781718	-0.03712259273814816	27.5854648942202	19.77270664805347	-3.997993966362927	-23.96415930149323	-442.1124580477025	-78.02926784168137	-26.24655508729072	-1.931818560741564	-0.5699815135649821	-0.6381144372235505	7.8508854233537	-0.3017184965731917	2.909733516153845	-3.258583468160436	8.331714275911628	8.331714275912473	1.410540054686384	-0.4158111863501605	3.17746943372095	0.5913275730898633	-2.815678087573393e-08	5.42535196129864e-07	-1.660896679661126e-08	6.162664132759839e-08	-1.282826581952616e-07	1.441655788461237e-07	5.568429638056503e-08
0.02	0.04762159439302084	0.1079731170120382	0.9027305608865387	0.1282933783581147	-0.3701771930965523	-0.2243461381192109	-0.2151485203271806	0.2068512591372595	0.2068512591372566	-0.1742453841793098	-0.1602347270025148	0.09089005342608705	0.07906419625764448	-0.03962163656509832	-0.01144356087943298	-0.01292140173633862	0.1588544492880456	-0.006150424016233995	0.05684892568931577	-0.06415107171287418	0.1680747841628072	0.1680747841628187	0.02840738351227562	-0.01017054999225816	0.06395573824536716	0.01184105961793639	0.1011364582514627	-0.09642379586633484	-0.007836571366608626	-0.2394193074918944	0.1689499169021763	-0.04814299780521025	-0.03517885209276935	25.77881193892693	16.67090453113644	-3.254162457645881	-22.93614889460455	-442.0928637777632	-84.11639802664115	-26.2467603774471	-2.041798594268972	-0.5644359872004797	-0.650342039643605	7.929461795290331	-0.3113507507592268	2.644453003052743	-2.962465844086796	8.311016071525463	8.311016071526645	1.391573475715241	-0.6610923477359411	3.140903679231418	0.5738755696685923	-4.55724502179063e-08	7.254995412909795e-07	8.802421930166856e-09	8.952594157043601e-08	-2.5748950654279e-07	1.540287181992274e-07	7.41099804010145e-08
0.03	0.0471287528134974	0.1078306915003364	0.9025696590846976	0.1302665177130206	-0.3702533310860924	-0.223640854544224	-0.2159407917932971	0.2089368874680175	0.2089368874681516	-0.1738930796487299	-0.160360684874146	0.09168291783140459	0.07921114687206547	-0.05886358942550526	-0.01703920856145419	-0.01925056016233734	0.2354477981883047	-0.009044776656948948	0.08408831090083999	-0.09408664813784345	0.2486522496606792	0.2486522496606816	0.04199257402591506	-0.01495973819105514	0.09443188199731856	0.01753208870869025	0.09791408289971032	-0.09215322877203129	-0.007017644608101217	-0.235156872963939	0.1629241921558338	-0.04946417466801286	-0.0327695845224252	23.74312236470806	17.4471489278365	-3.202037248828857	-21.38592708031242	-442.2942277591764	-81.90224097228503	-26.24675364383797	-1.852930135278198	-0.5567612055568461	-0.6229949935967402	7.475422983723267	-0.2737268670853822	2.745781610721232	-2.976617535942514	7.871302040100415	7.871302040098147	1.332974569985071	-0.3786551107144052	2.973197075436557	0.5640555778430805	-5.573708262267073e-08	8.361294269132777e-07	1.883419977493241e-08	1.075665522487465e-07	-3.534978024945359e-07	1.626390923492928e-07	8.705465322633552e-08
0.04	0.04644598440472286	0.1076323831024434	0.9023457072486907	0.1329958208661621	-0.3703574624713101	-0.2226667570510073	-0.2170259218225188	0.2118163285042025	0.2118163285042005	-0.1734067266668065	-0.1605326992383484	0.09277498914468904	0.07941447557720703	-0.0776070024200371	-0.02262013811766237	-0.02553140856948237	0.3100872089417002	-0.01174910315196821	0.1106117093331507	-0.1227227843324503	0.3268373252058501	0.326837325205838	0.05521707377146407	-0.01938184858037321	0.1237971198396626	0.02311667776203485	0.09469170754734471	-0.08788266167764221	-0.006198717851651689	-0.2308944384359062	0.1568984674094747	-0.05078535153070185	-0.03036031695256461	21.74348930326472	18.22761816856088	-3.16262419808199	-19.90224703695655	-441.873506115203	-79.55659086859741	-26.24595636639006	-1.942090621094051	-0.5614923620377615	-0.6406800358728679	7.538674165917642	-0.2733455216200658	2.501255647210046	-2.702577798014374	7.832538080985262	7.832538080985375	1.319435322097245	-0.5876767858401286	2.918722497310096	0.5525875621868179	-6.575220911119994e-08	9.452678803801365e-07	2.854887224068739e-08	1.254038909772729e-07	-4.488215922113173e-07	1.712236362889862e-07	9.988631551155081e-08
0.05	0.04557788583661049	0.1073784059017808	0.9020590074409019	0.1364623699144814	-0.3704877556680013	-0.2214318907374209	-0.2183905687691464	0.2154662828994048	0.215466282899396	-0.1727900340753721	-0.1607481079793123	0.09415540223621695	0.0796731404969904	-0.09593139844372207	-0.02816476334039272	-0.03181200849690449	0.3828901727845113	-0.0142801977872692	0.1362494376455706	-0.1499935926999958	0.4027561135146245	0.402756113514612	0.06804020487552846	-0.02362492680624692	0.1521087849665975	0.02859968785434625	0.09141541618819379	-0.08606653825858705	-0.00530124882110256	-0.227208678485326	0.1507809410153436	-0.04975115944340238	-0.02791627857006241	19.84026153683174	17.96553672178385	-2.9538756166906	-18.58448868402808	-441.6845981824804	-79.41457416980427	-26.24373670946705	-1.765414445237414	-0.5493415761146999	-0.622358832082934	7.101237937756529	-0.2387341067085898	2.578240680331386	-2.707380512553244	7.411913076652663	7.411913076652237	1.251731070498702	-0.331395015974588	2.76090341497141	0.5435135683581236	-7.043545182218644e-08	9.946946157107234e-07	2.679646005627352e-08	1.357043297725921e-07	-5.105179797908101e-07	1.804932400491673e-07	1.074383324275825e-07
